G04 PROTEUS GERBER X2 FILE*
%TF.GenerationSoftware,Labcenter,Proteus,8.8-SP1-Build27031*%
%TF.CreationDate,2022-04-04T16:32:35+00:00*%
%TF.FileFunction,Plated,1,2,PTH*%
%TF.FilePolarity,Positive*%
%TF.Part,Single*%
%TF.SameCoordinates,{f11ef5d1-6b42-4984-83c1-33555d163e1d}*%
%FSLAX45Y45*%
%MOMM*%
G01*
%TA.AperFunction,ComponentDrill*%
%ADD28C,0.762000*%
%ADD29C,3.000000*%
%TA.AperFunction,ComponentDrill*%
%ADD72C,1.016000*%
%TA.AperFunction,OtherDrill,Unknown*%
%ADD73C,3.200000*%
%TD.AperFunction*%
D28*
X-1306580Y+4373000D03*
X-1029720Y+4373000D03*
X-755400Y+4373000D03*
X-478540Y+4373000D03*
X-201680Y+4373000D03*
X+72640Y+4373000D03*
X+349500Y+4373000D03*
X+626360Y+4373000D03*
X+900680Y+4373000D03*
X+1177540Y+4373000D03*
X+1454400Y+4373000D03*
X+1728720Y+4373000D03*
X+2005580Y+4373000D03*
X-1169420Y+4627000D03*
X-892560Y+4627000D03*
X-618240Y+4627000D03*
X-341380Y+4627000D03*
X-64520Y+4627000D03*
X+209800Y+4627000D03*
X+486660Y+4627000D03*
X+763520Y+4627000D03*
X+1037840Y+4627000D03*
X+1314700Y+4627000D03*
X+1591560Y+4627000D03*
X+1865880Y+4627000D03*
D29*
X-2000000Y+4500000D03*
X+2699000Y+4500000D03*
D72*
X-2000000Y+3250000D03*
X-1746000Y+3250000D03*
X+2500000Y+3250000D03*
X+2754000Y+3250000D03*
X-2004000Y+2250000D03*
X-1750000Y+2250000D03*
X+2496000Y+2250000D03*
X+2750000Y+2250000D03*
X+2496000Y+1250000D03*
X+2750000Y+1250000D03*
X-2000000Y+1250000D03*
X-1746000Y+1250000D03*
X-1262000Y+0D03*
X-1008000Y+0D03*
X-754000Y+0D03*
X-500000Y+0D03*
X+1138000Y+0D03*
X+1392000Y+0D03*
X+1646000Y+0D03*
X+1900000Y+0D03*
X-116000Y+2300000D03*
X+138000Y+2300000D03*
X+392000Y+2300000D03*
X+646000Y+2300000D03*
X+900000Y+2300000D03*
X-2000000Y-250000D03*
X-2000000Y+4000D03*
X+2624000Y-260000D03*
X+2624000Y-6000D03*
D28*
X-1510000Y-788000D03*
X-494000Y-788000D03*
X+974000Y-766000D03*
X+1990000Y-766000D03*
D73*
X-3000000Y+5000000D03*
X-3000000Y-750000D03*
X+3750000Y-750000D03*
X+3750000Y+5000000D03*
M02*
