G04 PROTEUS GERBER X2 FILE*
%TF.GenerationSoftware,Labcenter,Proteus,8.8-SP1-Build27031*%
%TF.CreationDate,2022-04-04T16:32:35+00:00*%
%TF.FileFunction,Soldermask,Top*%
%TF.FilePolarity,Negative*%
%TF.Part,Single*%
%TF.SameCoordinates,{f11ef5d1-6b42-4984-83c1-33555d163e1d}*%
%FSLAX45Y45*%
%MOMM*%
G01*
%AMPPAD009*
4,1,36,
-0.889000,1.016000,
0.889000,1.016000,
0.914970,1.013470,
0.938980,1.006200,
0.960580,0.994650,
0.979290,0.979290,
0.994650,0.960570,
1.006200,0.938980,
1.013470,0.914970,
1.016000,0.889000,
1.016000,-0.889000,
1.013470,-0.914970,
1.006200,-0.938980,
0.994650,-0.960570,
0.979290,-0.979290,
0.960580,-0.994650,
0.938980,-1.006200,
0.914970,-1.013470,
0.889000,-1.016000,
-0.889000,-1.016000,
-0.914970,-1.013470,
-0.938980,-1.006200,
-0.960580,-0.994650,
-0.979290,-0.979290,
-0.994650,-0.960570,
-1.006200,-0.938980,
-1.013470,-0.914970,
-1.016000,-0.889000,
-1.016000,0.889000,
-1.013470,0.914970,
-1.006200,0.938980,
-0.994650,0.960570,
-0.979290,0.979290,
-0.960580,0.994650,
-0.938980,1.006200,
-0.914970,1.013470,
-0.889000,1.016000,
0*%
%TA.AperFunction,Material*%
%ADD19PPAD009*%
%ADD70C,6.604000*%
%AMPPAD011*
4,1,36,
-1.016000,1.143000,
1.016000,1.143000,
1.041970,1.140470,
1.065980,1.133200,
1.087580,1.121650,
1.106290,1.106290,
1.121650,1.087570,
1.133200,1.065980,
1.140470,1.041970,
1.143000,1.016000,
1.143000,-1.016000,
1.140470,-1.041970,
1.133200,-1.065980,
1.121650,-1.087570,
1.106290,-1.106290,
1.087580,-1.121650,
1.065980,-1.133200,
1.041970,-1.140470,
1.016000,-1.143000,
-1.016000,-1.143000,
-1.041970,-1.140470,
-1.065980,-1.133200,
-1.087580,-1.121650,
-1.106290,-1.106290,
-1.121650,-1.087570,
-1.133200,-1.065980,
-1.140470,-1.041970,
-1.143000,-1.016000,
-1.143000,1.016000,
-1.140470,1.041970,
-1.133200,1.065980,
-1.121650,1.087570,
-1.106290,1.106290,
-1.087580,1.121650,
-1.065980,1.133200,
-1.041970,1.140470,
-1.016000,1.143000,
0*%
%TA.AperFunction,Material*%
%ADD71PPAD011*%
%AMPPAD012*
4,1,36,
-1.143000,-1.016000,
-1.143000,1.016000,
-1.140470,1.041970,
-1.133200,1.065980,
-1.121650,1.087580,
-1.106290,1.106290,
-1.087570,1.121650,
-1.065980,1.133200,
-1.041970,1.140470,
-1.016000,1.143000,
1.016000,1.143000,
1.041970,1.140470,
1.065980,1.133200,
1.087570,1.121650,
1.106290,1.106290,
1.121650,1.087580,
1.133200,1.065980,
1.140470,1.041970,
1.143000,1.016000,
1.143000,-1.016000,
1.140470,-1.041970,
1.133200,-1.065980,
1.121650,-1.087580,
1.106290,-1.106290,
1.087570,-1.121650,
1.065980,-1.133200,
1.041970,-1.140470,
1.016000,-1.143000,
-1.016000,-1.143000,
-1.041970,-1.140470,
-1.065980,-1.133200,
-1.087570,-1.121650,
-1.106290,-1.106290,
-1.121650,-1.087580,
-1.133200,-1.065980,
-1.140470,-1.041970,
-1.143000,-1.016000,
0*%
%ADD20PPAD012*%
%ADD21C,2.032000*%
%TA.AperFunction,Material*%
%ADD22C,4.008000*%
%TA.AperFunction,Profile*%
%ADD16C,0.203200*%
%TD.AperFunction*%
D19*
X-1306580Y+4373000D03*
X-1029720Y+4373000D03*
X-755400Y+4373000D03*
X-478540Y+4373000D03*
X-201680Y+4373000D03*
X+72640Y+4373000D03*
X+349500Y+4373000D03*
X+626360Y+4373000D03*
X+900680Y+4373000D03*
X+1177540Y+4373000D03*
X+1454400Y+4373000D03*
X+1728720Y+4373000D03*
X+2005580Y+4373000D03*
X-1169420Y+4627000D03*
X-892560Y+4627000D03*
X-618240Y+4627000D03*
X-341380Y+4627000D03*
X-64520Y+4627000D03*
X+209800Y+4627000D03*
X+486660Y+4627000D03*
X+763520Y+4627000D03*
X+1037840Y+4627000D03*
X+1314700Y+4627000D03*
X+1591560Y+4627000D03*
X+1865880Y+4627000D03*
D70*
X-2000000Y+4500000D03*
X+2699000Y+4500000D03*
D71*
X-2000000Y+3250000D03*
X-1746000Y+3250000D03*
X+2500000Y+3250000D03*
X+2754000Y+3250000D03*
X-2004000Y+2250000D03*
X-1750000Y+2250000D03*
X+2496000Y+2250000D03*
X+2750000Y+2250000D03*
X+2496000Y+1250000D03*
X+2750000Y+1250000D03*
X-2000000Y+1250000D03*
X-1746000Y+1250000D03*
X-1262000Y+0D03*
X-1008000Y+0D03*
X-754000Y+0D03*
X-500000Y+0D03*
X+1138000Y+0D03*
X+1392000Y+0D03*
X+1646000Y+0D03*
X+1900000Y+0D03*
X-116000Y+2300000D03*
X+138000Y+2300000D03*
X+392000Y+2300000D03*
X+646000Y+2300000D03*
X+900000Y+2300000D03*
D20*
X-2000000Y-250000D03*
X-2000000Y+4000D03*
X+2624000Y-260000D03*
X+2624000Y-6000D03*
D21*
X-1510000Y-788000D03*
X-494000Y-788000D03*
X+974000Y-766000D03*
X+1990000Y-766000D03*
D22*
X-3000000Y+5000000D03*
X-3000000Y-750000D03*
X+3750000Y-750000D03*
X+3750000Y+5000000D03*
D16*
X-3250000Y-1000000D02*
X+4000000Y-1000000D01*
X+4000000Y+5250000D01*
X-3250000Y+5250000D01*
X-3250000Y-1000000D01*
M02*
