G04 PROTEUS GERBER X2 FILE*
%TF.GenerationSoftware,Labcenter,Proteus,8.8-SP1-Build27031*%
%TF.CreationDate,2022-04-04T16:32:35+00:00*%
%TF.FileFunction,Copper,L2,Bot*%
%TF.FilePolarity,Positive*%
%TF.Part,Single*%
%TF.SameCoordinates,{f11ef5d1-6b42-4984-83c1-33555d163e1d}*%
%FSLAX45Y45*%
%MOMM*%
G01*
%TA.AperFunction,Conductor*%
%ADD17C,1.016000*%
%ADD10C,0.254000*%
%TA.AperFunction,ComponentPad*%
%ADD11R,1.778000X1.778000*%
%ADD12C,6.350000*%
%TA.AperFunction,ComponentPad*%
%ADD13R,2.032000X2.032000*%
%ADD14C,1.778000*%
%TA.AperFunction,OtherPad,Unknown*%
%ADD15C,3.500000*%
%TA.AperFunction,Profile*%
%ADD16C,0.203200*%
%TD.AperFunction*%
D17*
X-1370080Y+317500D02*
X-1306580Y+254000D01*
X-1306580Y+44580D01*
X-1262000Y+0D01*
X-1370080Y+317500D02*
X-1306580Y+381000D01*
X-1306580Y+4373000D01*
X+1138000Y+0D02*
X+1138000Y+3429000D01*
X+1177540Y+3468540D01*
X+1177540Y+4373000D01*
X+1454400Y+4373000D02*
X+1454400Y+2794000D01*
X+1392000Y+2731600D01*
X+1392000Y+0D01*
X+1728720Y+4373000D02*
X+1728720Y+1143000D01*
X+1646000Y+1060280D01*
X+1646000Y+0D01*
X+1900000Y+0D02*
X+1900000Y+3048000D01*
X+2005580Y+3153580D01*
X+2005580Y+4373000D01*
X+1900000Y+0D02*
X+2095500Y+0D01*
X+2101500Y-6000D01*
X+2624000Y-6000D01*
D10*
X+209800Y+4627000D02*
X+10800Y+4826000D01*
X-1524000Y+4826000D01*
X-1587500Y+4762500D01*
X-1587500Y+1408500D01*
X-1746000Y+1250000D01*
D17*
X-1008000Y+0D02*
X-1029720Y+21720D01*
X-1029720Y+4373000D01*
D10*
X+486660Y+4627000D02*
X+812660Y+4953000D01*
X+3111500Y+4953000D01*
X+3175000Y+4889500D01*
X+3175000Y+1675000D01*
X+2750000Y+1250000D01*
X+1037840Y+4627000D02*
X+1236840Y+4826000D01*
X+2159000Y+4826000D01*
X+2222500Y+4762500D01*
X+2222500Y+4445000D01*
X+2921000Y+3746500D01*
X+2921000Y+2421000D01*
X+2750000Y+2250000D01*
X+1865880Y+4627000D02*
X+2095500Y+4627000D01*
X+2159000Y+4563500D01*
X+2159000Y+3591000D01*
X+2500000Y+3250000D01*
D17*
X-754000Y+0D02*
X-755400Y+1400D01*
X-755400Y+4373000D01*
X-500000Y+0D02*
X-500000Y+3873500D01*
X-478540Y+3894960D01*
X-478540Y+4373000D01*
D10*
X-500000Y+0D02*
X-500000Y-190500D01*
X-1524000Y-190500D01*
X-1718500Y+4000D01*
X-2000000Y+4000D01*
X-201680Y+4373000D02*
X-201680Y+3111500D01*
X-116000Y+3025820D01*
X-116000Y+2300000D01*
X+72640Y+4373000D02*
X+138000Y+4307640D01*
X+138000Y+2300000D01*
X+349500Y+4373000D02*
X+349500Y+4127500D01*
X+392000Y+4085000D01*
X+392000Y+2300000D01*
X+626360Y+4373000D02*
X+626360Y+4127500D01*
X+646000Y+4107860D01*
X+646000Y+2300000D01*
X+900680Y+4373000D02*
X+900680Y+4127500D01*
X+900000Y+4126820D01*
X+900000Y+2300000D01*
X-1370080Y+317500D02*
X-2222500Y+317500D01*
X-2349500Y+190500D01*
X-2349500Y-631000D01*
X-2192500Y-788000D01*
X-1510000Y-788000D01*
X-2000000Y-250000D02*
X-2000000Y-500000D01*
X-782000Y-500000D01*
X-494000Y-788000D01*
X+2624000Y-260000D02*
X+2624000Y-510000D01*
X+2246000Y-510000D01*
X+1990000Y-766000D01*
D17*
X+1138000Y+0D02*
X+1138000Y-190500D01*
X+1011000Y-317500D01*
X+974000Y-317500D01*
X+974000Y-766000D01*
D11*
X-1306580Y+4373000D03*
X-1029720Y+4373000D03*
X-755400Y+4373000D03*
X-478540Y+4373000D03*
X-201680Y+4373000D03*
X+72640Y+4373000D03*
X+349500Y+4373000D03*
X+626360Y+4373000D03*
X+900680Y+4373000D03*
X+1177540Y+4373000D03*
X+1454400Y+4373000D03*
X+1728720Y+4373000D03*
X+2005580Y+4373000D03*
X-1169420Y+4627000D03*
X-892560Y+4627000D03*
X-618240Y+4627000D03*
X-341380Y+4627000D03*
X-64520Y+4627000D03*
X+209800Y+4627000D03*
X+486660Y+4627000D03*
X+763520Y+4627000D03*
X+1037840Y+4627000D03*
X+1314700Y+4627000D03*
X+1591560Y+4627000D03*
X+1865880Y+4627000D03*
D12*
X-2000000Y+4500000D03*
X+2699000Y+4500000D03*
D13*
X-2000000Y+3250000D03*
X-1746000Y+3250000D03*
X+2500000Y+3250000D03*
X+2754000Y+3250000D03*
X-2004000Y+2250000D03*
X-1750000Y+2250000D03*
X+2496000Y+2250000D03*
X+2750000Y+2250000D03*
X+2496000Y+1250000D03*
X+2750000Y+1250000D03*
X-2000000Y+1250000D03*
X-1746000Y+1250000D03*
X-1262000Y+0D03*
X-1008000Y+0D03*
X-754000Y+0D03*
X-500000Y+0D03*
X+1138000Y+0D03*
X+1392000Y+0D03*
X+1646000Y+0D03*
X+1900000Y+0D03*
X-116000Y+2300000D03*
X+138000Y+2300000D03*
X+392000Y+2300000D03*
X+646000Y+2300000D03*
X+900000Y+2300000D03*
X-2000000Y-250000D03*
X-2000000Y+4000D03*
X+2624000Y-260000D03*
X+2624000Y-6000D03*
D14*
X-1510000Y-788000D03*
X-494000Y-788000D03*
X+974000Y-766000D03*
X+1990000Y-766000D03*
D15*
X-3000000Y+5000000D03*
X-3000000Y-750000D03*
X+3750000Y-750000D03*
X+3750000Y+5000000D03*
D16*
X-3250000Y-1000000D02*
X+4000000Y-1000000D01*
X+4000000Y+5250000D01*
X-3250000Y+5250000D01*
X-3250000Y-1000000D01*
M02*
